<?xml version="1.0" encoding="UTF-8" standalone="no"?>
<svg viewBox="0 0 1280 720" xmlns="http://www.w3.org/2000/svg" xmlns:xlink="http://www.w3.org/1999/xlink">

<title>Gnuplot</title>
<desc>Produced by GNUPLOT 5.2 patchlevel 6 </desc>

<g id="gnuplot_canvas">

<rect x="0" y="0" width="1280" height="720" fill="none"/>
<defs>

	<circle id="gpDot" r="0.5" stroke-width="0.5" stroke="currentColor"/>
	<path id="gpPt0" stroke-width="0.222" stroke="currentColor" d="M-1,0 h2 M0,-1 v2"/>
	<path id="gpPt1" stroke-width="0.222" stroke="currentColor" d="M-1,-1 L1,1 M1,-1 L-1,1"/>
	<path id="gpPt2" stroke-width="0.222" stroke="currentColor" d="M-1,0 L1,0 M0,-1 L0,1 M-1,-1 L1,1 M-1,1 L1,-1"/>
	<rect id="gpPt3" stroke-width="0.222" stroke="currentColor" x="-1" y="-1" width="2" height="2"/>
	<rect id="gpPt4" stroke-width="0.222" stroke="currentColor" fill="currentColor" x="-1" y="-1" width="2" height="2"/>
	<circle id="gpPt5" stroke-width="0.222" stroke="currentColor" cx="0" cy="0" r="1"/>
	<use xlink:href="#gpPt5" id="gpPt6" fill="currentColor" stroke="none"/>
	<path id="gpPt7" stroke-width="0.222" stroke="currentColor" d="M0,-1.33 L-1.33,0.67 L1.33,0.67 z"/>
	<use xlink:href="#gpPt7" id="gpPt8" fill="currentColor" stroke="none"/>
	<use xlink:href="#gpPt7" id="gpPt9" stroke="currentColor" transform="rotate(180)"/>
	<use xlink:href="#gpPt9" id="gpPt10" fill="currentColor" stroke="none"/>
	<use xlink:href="#gpPt3" id="gpPt11" stroke="currentColor" transform="rotate(45)"/>
	<use xlink:href="#gpPt11" id="gpPt12" fill="currentColor" stroke="none"/>
	<path id="gpPt13" stroke-width="0.222" stroke="currentColor" d="M0,1.330 L1.265,0.411 L0.782,-1.067 L-0.782,-1.076 L-1.265,0.411 z"/>
	<use xlink:href="#gpPt13" id="gpPt14" fill="currentColor" stroke="none"/>
	<filter id="textbox" filterUnits="objectBoundingBox" x="0" y="0" height="1" width="1">
	  <feFlood flood-color="white" flood-opacity="1" result="bgnd"/>
	  <feComposite in="SourceGraphic" in2="bgnd" operator="atop"/>
	</filter>
	<filter id="greybox" filterUnits="objectBoundingBox" x="0" y="0" height="1" width="1">
	  <feFlood flood-color="lightgrey" flood-opacity="1" result="grey"/>
	  <feComposite in="SourceGraphic" in2="grey" operator="atop"/>
	</filter>
</defs>
<g fill="none" color="white" stroke="currentColor" stroke-width="1.00" stroke-linecap="butt" stroke-linejoin="miter">
</g>
<g fill="none" color="black" stroke="currentColor" stroke-width="1.00" stroke-linecap="butt" stroke-linejoin="miter">
	<path stroke="black" d="M63.6,662.4 L72.6,662.4  "/>	<g transform="translate(55.3,666.3)" stroke="none" fill="black" font-family="Helvetica" font-size="12.00" text-anchor="end">
		<text><tspan font-family="Helvetica"> 0</tspan></text>
	</g>
</g>
<g fill="none" color="black" stroke="currentColor" stroke-width="1.00" stroke-linecap="butt" stroke-linejoin="miter">
	<path stroke="black" d="M63.6,510.3 L72.6,510.3  "/>	<g transform="translate(55.3,514.2)" stroke="none" fill="black" font-family="Helvetica" font-size="12.00" text-anchor="end">
		<text><tspan font-family="Helvetica"> 5</tspan></text>
	</g>
</g>
<g fill="none" color="black" stroke="currentColor" stroke-width="1.00" stroke-linecap="butt" stroke-linejoin="miter">
	<path stroke="black" d="M63.6,358.2 L72.6,358.2  "/>	<g transform="translate(55.3,362.1)" stroke="none" fill="black" font-family="Helvetica" font-size="12.00" text-anchor="end">
		<text><tspan font-family="Helvetica"> 10</tspan></text>
	</g>
</g>
<g fill="none" color="black" stroke="currentColor" stroke-width="1.00" stroke-linecap="butt" stroke-linejoin="miter">
	<path stroke="black" d="M63.6,206.2 L72.6,206.2  "/>	<g transform="translate(55.3,210.1)" stroke="none" fill="black" font-family="Helvetica" font-size="12.00" text-anchor="end">
		<text><tspan font-family="Helvetica"> 15</tspan></text>
	</g>
</g>
<g fill="none" color="black" stroke="currentColor" stroke-width="1.00" stroke-linecap="butt" stroke-linejoin="miter">
	<path stroke="black" d="M63.6,54.1 L72.6,54.1  "/>	<g transform="translate(55.3,58.0)" stroke="none" fill="black" font-family="Helvetica" font-size="12.00" text-anchor="end">
		<text><tspan font-family="Helvetica"> 20</tspan></text>
	</g>
</g>
<g fill="none" color="black" stroke="currentColor" stroke-width="1.00" stroke-linecap="butt" stroke-linejoin="miter">
	<path stroke="black" d="M119.2,662.4 L119.2,653.4  "/>	<g transform="translate(119.2,684.3)" stroke="none" fill="black" font-family="Helvetica" font-size="12.00" text-anchor="middle">
		<text><tspan font-family="Helvetica"> 290</tspan></text>
	</g>
</g>
<g fill="none" color="black" stroke="currentColor" stroke-width="1.00" stroke-linecap="butt" stroke-linejoin="miter">
	<path stroke="black" d="M294.9,662.4 L294.9,653.4  "/>	<g transform="translate(294.9,684.3)" stroke="none" fill="black" font-family="Helvetica" font-size="12.00" text-anchor="middle">
		<text><tspan font-family="Helvetica"> 300</tspan></text>
	</g>
</g>
<g fill="none" color="black" stroke="currentColor" stroke-width="1.00" stroke-linecap="butt" stroke-linejoin="miter">
	<path stroke="black" d="M470.6,662.4 L470.6,653.4  "/>	<g transform="translate(470.6,684.3)" stroke="none" fill="black" font-family="Helvetica" font-size="12.00" text-anchor="middle">
		<text><tspan font-family="Helvetica"> 310</tspan></text>
	</g>
</g>
<g fill="none" color="black" stroke="currentColor" stroke-width="1.00" stroke-linecap="butt" stroke-linejoin="miter">
	<path stroke="black" d="M646.3,662.4 L646.3,653.4  "/>	<g transform="translate(646.3,684.3)" stroke="none" fill="black" font-family="Helvetica" font-size="12.00" text-anchor="middle">
		<text><tspan font-family="Helvetica"> 320</tspan></text>
	</g>
</g>
<g fill="none" color="black" stroke="currentColor" stroke-width="1.00" stroke-linecap="butt" stroke-linejoin="miter">
	<path stroke="black" d="M822.1,662.4 L822.1,653.4  "/>	<g transform="translate(822.1,684.3)" stroke="none" fill="black" font-family="Helvetica" font-size="12.00" text-anchor="middle">
		<text><tspan font-family="Helvetica"> 330</tspan></text>
	</g>
</g>
<g fill="none" color="black" stroke="currentColor" stroke-width="1.00" stroke-linecap="butt" stroke-linejoin="miter">
	<path stroke="black" d="M995.6,662.4 L986.6,662.4  "/>	<g transform="translate(1003.9,666.3)" stroke="none" fill="black" font-family="Helvetica" font-size="12.00" text-anchor="start">
		<text><tspan font-family="Helvetica"> 0</tspan></text>
	</g>
</g>
<g fill="none" color="black" stroke="currentColor" stroke-width="1.00" stroke-linecap="butt" stroke-linejoin="miter">
	<path stroke="black" d="M995.6,575.5 L986.6,575.5  "/>	<g transform="translate(1003.9,579.4)" stroke="none" fill="black" font-family="Helvetica" font-size="12.00" text-anchor="start">
		<text><tspan font-family="Helvetica"> 1x10</tspan><tspan font-family="Helvetica" font-size="9.6" dy="-6.00px">-8</tspan><tspan font-size="12.0" dy="6.00"/></text>
	</g>
</g>
<g fill="none" color="black" stroke="currentColor" stroke-width="1.00" stroke-linecap="butt" stroke-linejoin="miter">
	<path stroke="black" d="M995.6,488.6 L986.6,488.6  "/>	<g transform="translate(1003.9,492.5)" stroke="none" fill="black" font-family="Helvetica" font-size="12.00" text-anchor="start">
		<text><tspan font-family="Helvetica"> 2x10</tspan><tspan font-family="Helvetica" font-size="9.6" dy="-6.00px">-8</tspan><tspan font-size="12.0" dy="6.00"/></text>
	</g>
</g>
<g fill="none" color="black" stroke="currentColor" stroke-width="1.00" stroke-linecap="butt" stroke-linejoin="miter">
	<path stroke="black" d="M995.6,401.7 L986.6,401.7  "/>	<g transform="translate(1003.9,405.6)" stroke="none" fill="black" font-family="Helvetica" font-size="12.00" text-anchor="start">
		<text><tspan font-family="Helvetica"> 3x10</tspan><tspan font-family="Helvetica" font-size="9.6" dy="-6.00px">-8</tspan><tspan font-size="12.0" dy="6.00"/></text>
	</g>
</g>
<g fill="none" color="black" stroke="currentColor" stroke-width="1.00" stroke-linecap="butt" stroke-linejoin="miter">
	<path stroke="black" d="M995.6,314.8 L986.6,314.8  "/>	<g transform="translate(1003.9,318.7)" stroke="none" fill="black" font-family="Helvetica" font-size="12.00" text-anchor="start">
		<text><tspan font-family="Helvetica"> 4x10</tspan><tspan font-family="Helvetica" font-size="9.6" dy="-6.00px">-8</tspan><tspan font-size="12.0" dy="6.00"/></text>
	</g>
</g>
<g fill="none" color="black" stroke="currentColor" stroke-width="1.00" stroke-linecap="butt" stroke-linejoin="miter">
	<path stroke="black" d="M995.6,227.9 L986.6,227.9  "/>	<g transform="translate(1003.9,231.8)" stroke="none" fill="black" font-family="Helvetica" font-size="12.00" text-anchor="start">
		<text><tspan font-family="Helvetica"> 5x10</tspan><tspan font-family="Helvetica" font-size="9.6" dy="-6.00px">-8</tspan><tspan font-size="12.0" dy="6.00"/></text>
	</g>
</g>
<g fill="none" color="black" stroke="currentColor" stroke-width="1.00" stroke-linecap="butt" stroke-linejoin="miter">
	<path stroke="black" d="M995.6,141.0 L986.6,141.0  "/>	<g transform="translate(1003.9,144.9)" stroke="none" fill="black" font-family="Helvetica" font-size="12.00" text-anchor="start">
		<text><tspan font-family="Helvetica"> 6x10</tspan><tspan font-family="Helvetica" font-size="9.6" dy="-6.00px">-8</tspan><tspan font-size="12.0" dy="6.00"/></text>
	</g>
</g>
<g fill="none" color="black" stroke="currentColor" stroke-width="1.00" stroke-linecap="butt" stroke-linejoin="miter">
	<path stroke="black" d="M995.6,54.1 L986.6,54.1  "/>	<g transform="translate(1003.9,58.0)" stroke="none" fill="black" font-family="Helvetica" font-size="12.00" text-anchor="start">
		<text><tspan font-family="Helvetica"> 7x10</tspan><tspan font-family="Helvetica" font-size="9.6" dy="-6.00px">-8</tspan><tspan font-size="12.0" dy="6.00"/></text>
	</g>
</g>
<g fill="none" color="black" stroke="currentColor" stroke-width="1.00" stroke-linecap="butt" stroke-linejoin="miter">
</g>
<g fill="none" color="black" stroke="currentColor" stroke-width="1.00" stroke-linecap="butt" stroke-linejoin="miter">
	<path stroke="black" d="M63.6,54.1 L63.6,662.4 L995.6,662.4 L995.6,54.1 L63.6,54.1 Z  "/></g>
<g fill="none" color="black" stroke="currentColor" stroke-width="1.00" stroke-linecap="butt" stroke-linejoin="miter">
	<g transform="translate(16.3,358.3) rotate(270)" stroke="none" fill="black" font-family="Helvetica" font-size="12.00" text-anchor="middle">
		<text><tspan font-family="Helvetica">Iterations</tspan></text>
	</g>
</g>
<g fill="none" color="black" stroke="currentColor" stroke-width="1.00" stroke-linecap="butt" stroke-linejoin="miter">
	<g transform="translate(1082.5,358.3) rotate(270)" stroke="none" fill="black" font-family="Helvetica" font-size="12.00" text-anchor="middle">
		<text><tspan font-family="Helvetica">Density (a.u.)</tspan></text>
	</g>
</g>
<g fill="none" color="black" stroke="currentColor" stroke-width="1.00" stroke-linecap="butt" stroke-linejoin="miter">
	<g transform="translate(529.6,711.3)" stroke="none" fill="black" font-family="Helvetica" font-size="12.00" text-anchor="middle">
		<text><tspan font-family="Helvetica">Average time (ms)</tspan></text>
	</g>
</g>
<g fill="none" color="black" stroke="currentColor" stroke-width="1.00" stroke-linecap="butt" stroke-linejoin="miter">
	<g transform="translate(529.6,31.0)" stroke="none" fill="black" font-family="Helvetica" font-size="12.00" text-anchor="middle">
		<text><tspan font-family="Helvetica">ctest_ch1_learningjbook.ijs/optimized</tspan></text>
	</g>
</g>
	<g id="gnuplot_plot_1"><title>PDF</title>
<g fill="none" color="black" stroke="currentColor" stroke-width="1.00" stroke-linecap="butt" stroke-linejoin="miter">
	<g transform="translate(1155.4,67.0)" stroke="none" fill="black" font-family="Helvetica" font-size="12.00" text-anchor="start">
		<text><tspan font-family="Helvetica">PDF</tspan></text>
	</g>
</g>
<g fill="none" color="black" stroke="currentColor" stroke-width="1.00" stroke-linecap="butt" stroke-linejoin="miter">
	<g stroke="none" shape-rendering="crispEdges">
		<polygon fill="rgb( 31, 120, 180)" fill-opacity="0.250000" points="1104.9,67.6 1147.1,67.6 1147.1,58.6 1104.9,58.6 "/>
		<polygon fill="rgb( 31, 120, 180)" fill-opacity="0.250000" points="63.6,661.9 65.5,661.8 67.3,661.8 69.2,661.7 71.1,661.6 72.9,661.6 74.8,661.5 76.7,661.4 78.5,661.3 80.4,661.3 82.3,661.2 84.1,661.1 86.0,660.9 87.9,660.8 89.7,660.7 91.6,660.6 93.5,660.4 95.4,660.3 97.2,660.1 99.1,659.9 101.0,659.8 102.8,659.6 104.7,659.4 106.6,659.1 108.4,658.9 110.3,658.7 112.2,658.4 114.0,658.1 115.9,657.9 117.8,657.6 119.6,657.2 121.5,656.9 123.4,656.6 125.2,656.2 127.1,655.8 129.0,655.4 130.8,655.0 132.7,654.6 134.6,654.1 136.4,653.6 138.3,653.1 140.2,652.6 142.0,652.1 143.9,651.5 145.8,651.0 147.6,650.4 149.5,649.8 151.4,649.1 153.3,648.5 155.1,647.8 157.0,647.1 158.9,646.4 160.7,645.6 162.6,644.9 164.5,644.1 166.3,643.3 168.2,642.5 170.1,641.7 171.9,640.8 173.8,639.9 175.7,639.0 177.5,638.1 179.4,637.2 181.3,636.3 183.1,635.3 185.0,634.3 186.9,633.4 188.7,632.4 190.6,631.3 192.5,630.3 194.3,629.3 196.2,628.2 198.1,627.2 199.9,626.1 201.8,625.1 203.7,624.0 205.5,622.9 207.4,621.8 209.3,620.7 211.2,619.6 213.0,618.5 214.9,617.3 216.8,616.2 218.6,615.1 220.5,614.0 222.4,612.8 224.2,611.7 226.1,610.5 228.0,609.4 229.8,608.2 231.7,607.1 233.6,605.9 235.4,604.7 237.3,603.5 239.2,602.3 241.0,601.1 242.9,599.9 244.8,598.7 246.6,597.4 248.5,596.1 250.4,594.9 252.2,593.6 254.1,592.2 256.0,590.9 257.8,589.5 259.7,588.1 261.6,586.7 263.4,585.2 265.3,583.7 267.2,582.1 269.1,580.6 270.9,578.9 272.8,577.2 274.7,575.5 276.5,573.7 278.4,571.9 280.3,570.0 282.1,568.0 284.0,566.0 285.9,563.9 287.7,561.7 289.6,559.5 291.5,557.1 293.3,554.7 295.2,552.2 297.1,549.6 298.9,547.0 300.8,544.2 302.7,541.3 304.5,538.4 306.4,535.3 308.3,532.2 310.1,528.9 312.0,525.5 313.9,522.1 315.7,518.5 317.6,514.8 319.5,511.0 321.3,507.1 323.2,503.0 325.1,498.9 327.0,494.6 328.8,490.2 330.7,485.7 332.6,481.1 334.4,476.4 336.3,471.6 338.2,466.6 340.0,461.6 341.9,456.4 343.8,451.1 345.6,445.8 347.5,440.3 349.4,434.7 351.2,429.0 353.1,423.2 355.0,417.3 356.8,411.3 358.7,405.3 360.6,399.1 362.4,392.9 364.3,386.6 366.2,380.2 368.0,373.7 369.9,367.2 371.8,360.6 373.6,353.9 375.5,347.2 377.4,340.4 379.2,333.6 381.1,326.8 383.0,319.9 384.9,312.9 386.7,306.0 388.6,299.0 390.5,292.1 392.3,285.1 394.2,278.1 396.1,271.1 397.9,264.1 399.8,257.2 401.7,250.3 403.5,243.3 405.4,236.5 407.3,229.6 409.1,222.9 411.0,216.1 412.9,209.5 414.7,202.9 416.6,196.3 418.5,189.9 420.3,183.5 422.2,177.2 424.1,171.1 425.9,165.0 427.8,159.1 429.7,153.2 431.5,147.5 433.4,142.0 435.3,136.5 437.1,131.2 439.0,126.1 440.9,121.1 442.8,116.3 444.6,111.7 446.5,107.2 448.4,102.9 450.2,98.8 452.1,94.9 454.0,91.2 455.8,87.6 457.7,84.3 459.6,81.2 461.4,78.3 463.3,75.6 465.2,73.2 467.0,71.0 468.9,69.0 470.8,67.2 472.6,65.6 474.5,64.3 476.4,63.2 478.2,62.4 480.1,61.8 482.0,61.5 483.8,61.3 485.7,61.5 487.6,61.8 489.4,62.4 491.3,63.3 493.2,64.3 495.0,65.7 496.9,67.2 498.8,69.0 500.7,71.0 502.5,73.3 504.4,75.8 506.3,78.5 508.1,81.4 510.0,84.5 511.9,87.9 513.7,91.5 515.6,95.3 517.5,99.2 519.3,103.4 521.2,107.8 523.1,112.4 524.9,117.1 526.8,122.0 528.7,127.1 530.5,132.4 532.4,137.8 534.3,143.4 536.1,149.2 538.0,155.1 539.9,161.1 541.7,167.2 543.6,173.5 545.5,180.0 547.3,186.5 549.2,193.1 551.1,199.9 552.9,206.7 554.8,213.6 556.7,220.6 558.5,227.7 560.4,234.9 562.3,242.1 564.2,249.4 566.0,256.8 567.9,264.2 569.8,271.6 571.6,279.1 573.5,286.6 575.4,294.1 577.2,301.6 579.1,309.2 581.0,316.7 582.8,324.3 584.7,331.8 586.6,339.3 588.4,346.8 590.3,354.3 592.2,361.8 594.0,369.2 595.9,376.5 597.8,383.9 599.6,391.1 601.5,398.4 603.4,405.5 605.2,412.6 607.1,419.6 609.0,426.6 610.8,433.5 612.7,440.2 614.6,446.9 616.4,453.5 618.3,460.0 620.2,466.4 622.1,472.7 623.9,478.9 625.8,485.0 627.7,491.0 629.5,496.9 631.4,502.6 633.3,508.2 635.1,513.7 637.0,519.1 638.9,524.3 640.7,529.4 642.6,534.4 644.5,539.3 646.3,544.0 648.2,548.6 650.1,553.1 651.9,557.4 653.8,561.6 655.7,565.6 657.5,569.5 659.4,573.3 661.3,576.9 663.1,580.4 665.0,583.8 666.9,587.0 668.7,590.1 670.6,593.1 672.5,595.9 674.3,598.6 676.2,601.2 678.1,603.6 680.0,606.0 681.8,608.2 683.7,610.2 685.6,612.2 687.4,614.0 689.3,615.8 691.2,617.4 693.0,618.9 694.9,620.2 696.8,621.5 698.6,622.7 700.5,623.8 702.4,624.8 704.2,625.6 706.1,626.4 708.0,627.1 709.8,627.7 711.7,628.3 713.6,628.7 715.4,629.1 717.3,629.4 719.2,629.6 721.0,629.7 722.9,629.8 724.8,629.8 726.6,629.8 728.5,629.7 730.4,629.6 732.2,629.4 734.1,629.1 736.0,628.8 737.9,628.5 739.7,628.2 741.6,627.8 743.5,627.3 745.3,626.9 747.2,626.4 749.1,625.9 750.9,625.4 752.8,624.8 754.7,624.3 756.5,623.7 758.4,623.2 760.3,622.6 762.1,622.0 764.0,621.5 765.9,620.9 767.7,620.4 769.6,619.8 771.5,619.3 773.3,618.8 775.2,618.3 777.1,617.8 778.9,617.4 780.8,616.9 782.7,616.5 784.5,616.1 786.4,615.8 788.3,615.5 790.1,615.2 792.0,614.9 793.9,614.7 795.8,614.5 797.6,614.4 799.5,614.2 801.4,614.2 803.2,614.1 805.1,614.1 807.0,614.2 808.8,614.2 810.7,614.4 812.6,614.5 814.4,614.7 816.3,615.0 818.2,615.2 820.0,615.5 821.9,615.9 823.8,616.3 825.6,616.7 827.5,617.2 829.4,617.6 831.2,618.2 833.1,618.7 835.0,619.3 836.8,619.9 838.7,620.5 840.6,621.2 842.4,621.9 844.3,622.6 846.2,623.3 848.0,624.1 849.9,624.9 851.8,625.7 853.7,626.5 855.5,627.3 857.4,628.1 859.3,628.9 861.1,629.8 863.0,630.6 864.9,631.5 866.7,632.3 868.6,633.2 870.5,634.0 872.3,634.9 874.2,635.8 876.1,636.6 877.9,637.5 879.8,638.3 881.7,639.1 883.5,639.9 885.4,640.8 887.3,641.6 889.1,642.3 891.0,643.1 892.9,643.9 894.7,644.6 896.6,645.3 898.5,646.1 900.3,646.8 902.2,647.4 904.1,648.1 905.9,648.8 907.8,649.4 909.7,650.0 911.6,650.6 913.4,651.2 915.3,651.7 917.2,652.2 919.0,652.8 920.9,653.3 922.8,653.7 924.6,654.2 926.5,654.7 928.4,655.1 930.2,655.5 932.1,655.9 934.0,656.3 935.8,656.6 937.7,657.0 939.6,657.3 941.4,657.6 943.3,657.9 945.2,658.2 947.0,658.4 948.9,658.7 950.8,658.9 952.6,659.2 954.5,659.4 956.4,659.6 958.2,659.8 960.1,660.0 962.0,660.1 963.8,660.3 965.7,660.4 967.6,660.6 969.5,660.7 971.3,660.8 973.2,661.0 975.1,661.1 976.9,661.2 978.8,661.3 980.7,661.3 982.5,661.4 984.4,661.5 986.3,661.6 988.1,661.6 990.0,661.7 991.9,661.8 993.7,661.8 995.6,661.9 995.6,662.4 993.7,662.4 991.9,662.4 990.0,662.4 988.1,662.4 986.3,662.4 984.4,662.4 982.5,662.4 980.7,662.4 978.8,662.4 976.9,662.4 975.1,662.4 973.2,662.4 971.3,662.4 969.5,662.4 967.6,662.4 965.7,662.4 963.8,662.4 962.0,662.4 960.1,662.4 958.2,662.4 956.4,662.4 954.5,662.4 952.6,662.4 950.8,662.4 948.9,662.4 947.0,662.4 945.2,662.4 943.3,662.4 941.4,662.4 939.6,662.4 937.7,662.4 935.8,662.4 934.0,662.4 932.1,662.4 930.2,662.4 928.4,662.4 926.5,662.4 924.6,662.4 922.8,662.4 920.9,662.4 919.0,662.4 917.2,662.4 915.3,662.4 913.4,662.4 911.6,662.4 909.7,662.4 907.8,662.4 905.9,662.4 904.1,662.4 902.2,662.4 900.3,662.4 898.5,662.4 896.6,662.4 894.7,662.4 892.9,662.4 891.0,662.4 889.1,662.4 887.3,662.4 885.4,662.4 883.5,662.4 881.7,662.4 879.8,662.4 877.9,662.4 876.1,662.4 874.2,662.4 872.3,662.4 870.5,662.4 868.6,662.4 866.7,662.4 864.9,662.4 863.0,662.4 861.1,662.4 859.3,662.4 857.4,662.4 855.5,662.4 853.7,662.4 851.8,662.4 849.9,662.4 848.0,662.4 846.2,662.4 844.3,662.4 842.4,662.4 840.6,662.4 838.7,662.4 836.8,662.4 835.0,662.4 833.1,662.4 831.2,662.4 829.4,662.4 827.5,662.4 825.6,662.4 823.8,662.4 821.9,662.4 820.0,662.4 818.2,662.4 816.3,662.4 814.4,662.4 812.6,662.4 810.7,662.4 808.8,662.4 807.0,662.4 805.1,662.4 803.2,662.4 801.4,662.4 799.5,662.4 797.6,662.4 795.8,662.4 793.9,662.4 792.0,662.4 790.1,662.4 788.3,662.4 786.4,662.4 784.5,662.4 782.7,662.4 780.8,662.4 778.9,662.4 777.1,662.4 775.2,662.4 773.3,662.4 771.5,662.4 769.6,662.4 767.7,662.4 765.9,662.4 764.0,662.4 762.1,662.4 760.3,662.4 758.4,662.4 756.5,662.4 754.7,662.4 752.8,662.4 750.9,662.4 749.1,662.4 747.2,662.4 745.3,662.4 743.5,662.4 741.6,662.4 739.7,662.4 737.9,662.4 736.0,662.4 734.1,662.4 732.2,662.4 730.4,662.4 728.5,662.4 726.6,662.4 724.8,662.4 722.9,662.4 721.0,662.4 719.2,662.4 717.3,662.4 715.4,662.4 713.6,662.4 711.7,662.4 709.8,662.4 708.0,662.4 706.1,662.4 704.2,662.4 702.4,662.4 700.5,662.4 698.6,662.4 696.8,662.4 694.9,662.4 693.0,662.4 691.2,662.4 689.3,662.4 687.4,662.4 685.6,662.4 683.7,662.4 681.8,662.4 680.0,662.4 678.1,662.4 676.2,662.4 674.3,662.4 672.5,662.4 670.6,662.4 668.7,662.4 666.9,662.4 665.0,662.4 663.1,662.4 661.3,662.4 659.4,662.4 657.5,662.4 655.7,662.4 653.8,662.4 651.9,662.4 650.1,662.4 648.2,662.4 646.3,662.4 644.5,662.4 642.6,662.4 640.7,662.4 638.9,662.4 637.0,662.4 635.1,662.4 633.3,662.4 631.4,662.4 629.5,662.4 627.7,662.4 625.8,662.4 623.9,662.4 622.1,662.4 620.2,662.4 618.3,662.4 616.4,662.4 614.6,662.4 612.7,662.4 610.8,662.4 609.0,662.4 607.1,662.4 605.2,662.4 603.4,662.4 601.5,662.4 599.6,662.4 597.8,662.4 595.9,662.4 594.0,662.4 592.2,662.4 590.3,662.4 588.4,662.4 586.6,662.4 584.7,662.4 582.8,662.4 581.0,662.4 579.1,662.4 577.2,662.4 575.4,662.4 573.5,662.4 571.6,662.4 569.8,662.4 567.9,662.4 566.0,662.4 564.2,662.4 562.3,662.4 560.4,662.4 558.5,662.4 556.7,662.4 554.8,662.4 552.9,662.4 551.1,662.4 549.2,662.4 547.3,662.4 545.5,662.4 543.6,662.4 541.7,662.4 539.9,662.4 538.0,662.4 536.1,662.4 534.3,662.4 532.4,662.4 530.5,662.4 528.7,662.4 526.8,662.4 524.9,662.4 523.1,662.4 521.2,662.4 519.3,662.4 517.5,662.4 515.6,662.4 513.7,662.4 511.9,662.4 510.0,662.4 508.1,662.4 506.3,662.4 504.4,662.4 502.5,662.4 500.7,662.4 498.8,662.4 496.9,662.4 495.0,662.4 493.2,662.4 491.3,662.4 489.4,662.4 487.6,662.4 485.7,662.4 483.8,662.4 482.0,662.4 480.1,662.4 478.2,662.4 476.4,662.4 474.5,662.4 472.6,662.4 470.8,662.4 468.9,662.4 467.0,662.4 465.2,662.4 463.3,662.4 461.4,662.4 459.6,662.4 457.7,662.4 455.8,662.4 454.0,662.4 452.1,662.4 450.2,662.4 448.4,662.4 446.5,662.4 444.6,662.4 442.8,662.4 440.9,662.4 439.0,662.4 437.1,662.4 435.3,662.4 433.4,662.4 431.5,662.4 429.7,662.4 427.8,662.4 425.9,662.4 424.1,662.4 422.2,662.4 420.3,662.4 418.5,662.4 416.6,662.4 414.7,662.4 412.9,662.4 411.0,662.4 409.1,662.4 407.3,662.4 405.4,662.4 403.5,662.4 401.7,662.4 399.8,662.4 397.9,662.4 396.1,662.4 394.2,662.4 392.3,662.4 390.5,662.4 388.6,662.4 386.7,662.4 384.9,662.4 383.0,662.4 381.1,662.4 379.2,662.4 377.4,662.4 375.5,662.4 373.6,662.4 371.8,662.4 369.9,662.4 368.0,662.4 366.2,662.4 364.3,662.4 362.4,662.4 360.6,662.4 358.7,662.4 356.8,662.4 355.0,662.4 353.1,662.4 351.2,662.4 349.4,662.4 347.5,662.4 345.6,662.4 343.8,662.4 341.9,662.4 340.0,662.4 338.2,662.4 336.3,662.4 334.4,662.4 332.6,662.4 330.7,662.4 328.8,662.4 327.0,662.4 325.1,662.4 323.2,662.4 321.3,662.4 319.5,662.4 317.6,662.4 315.7,662.4 313.9,662.4 312.0,662.4 310.1,662.4 308.3,662.4 306.4,662.4 304.5,662.4 302.7,662.4 300.8,662.4 298.9,662.4 297.1,662.4 295.2,662.4 293.3,662.4 291.5,662.4 289.6,662.4 287.7,662.4 285.9,662.4 284.0,662.4 282.1,662.4 280.3,662.4 278.4,662.4 276.5,662.4 274.7,662.4 272.8,662.4 270.9,662.4 269.1,662.4 267.2,662.4 265.3,662.4 263.4,662.4 261.6,662.4 259.7,662.4 257.8,662.4 256.0,662.4 254.1,662.4 252.2,662.4 250.4,662.4 248.5,662.4 246.6,662.4 244.8,662.4 242.9,662.4 241.0,662.4 239.2,662.4 237.3,662.4 235.4,662.4 233.6,662.4 231.7,662.4 229.8,662.4 228.0,662.4 226.1,662.4 224.2,662.4 222.4,662.4 220.5,662.4 218.6,662.4 216.8,662.4 214.9,662.4 213.0,662.4 211.2,662.4 209.3,662.4 207.4,662.4 205.5,662.4 203.7,662.4 201.8,662.4 199.9,662.4 198.1,662.4 196.2,662.4 194.3,662.4 192.5,662.4 190.6,662.4 188.7,662.4 186.9,662.4 185.0,662.4 183.1,662.4 181.3,662.4 179.4,662.4 177.5,662.4 175.7,662.4 173.8,662.4 171.9,662.4 170.1,662.4 168.2,662.4 166.3,662.4 164.5,662.4 162.6,662.4 160.7,662.4 158.9,662.4 157.0,662.4 155.1,662.4 153.3,662.4 151.4,662.4 149.5,662.4 147.6,662.4 145.8,662.4 143.9,662.4 142.0,662.4 140.2,662.4 138.3,662.4 136.4,662.4 134.6,662.4 132.7,662.4 130.8,662.4 129.0,662.4 127.1,662.4 125.2,662.4 123.4,662.4 121.5,662.4 119.6,662.4 117.8,662.4 115.9,662.4 114.0,662.4 112.2,662.4 110.3,662.4 108.4,662.4 106.6,662.4 104.7,662.4 102.8,662.4 101.0,662.4 99.1,662.4 97.2,662.4 95.4,662.4 93.5,662.4 91.6,662.4 89.7,662.4 87.9,662.4 86.0,662.4 84.1,662.4 82.3,662.4 80.4,662.4 78.5,662.4 76.7,662.4 74.8,662.4 72.9,662.4 71.1,662.4 69.2,662.4 67.3,662.4 65.5,662.4 63.6,662.4 "/>
	</g>
</g>
	</g>
	<g id="gnuplot_plot_2"><title>Mean</title>
<g fill="none" color="white" stroke="rgb( 31, 120, 180)" stroke-width="2.00" stroke-linecap="butt" stroke-linejoin="miter">
</g>
<g fill="none" color="black" stroke="currentColor" stroke-width="2.00" stroke-linecap="butt" stroke-linejoin="miter">
	<g transform="translate(1155.4,85.0)" stroke="none" fill="black" font-family="Helvetica" font-size="12.00" text-anchor="start">
		<text><tspan font-family="Helvetica">Mean</tspan></text>
	</g>
</g>
<g fill="none" color="black" stroke="currentColor" stroke-width="2.00" stroke-linecap="butt" stroke-linejoin="miter">
	<path stroke="rgb( 31, 120, 180)" d="M1104.9,81.1 L1147.1,81.1 M486.7,662.4 L486.7,54.1  "/></g>
	</g>
	<g id="gnuplot_plot_3"><title>"Clean" sample</title>
<g fill="none" color="white" stroke="rgb( 31, 120, 180)" stroke-width="1.00" stroke-linecap="butt" stroke-linejoin="miter">
</g>
<g fill="none" color="black" stroke="currentColor" stroke-width="1.00" stroke-linecap="butt" stroke-linejoin="miter">
	<g transform="translate(1155.4,103.0)" stroke="none" fill="black" font-family="Helvetica" font-size="12.00" text-anchor="start">
		<text><tspan font-family="Helvetica">"Clean" sample</tspan></text>
	</g>
</g>
<g fill="none" color="black" stroke="currentColor" stroke-width="1.00" stroke-linecap="butt" stroke-linejoin="miter">
	<use xlink:href="#gpPt6" transform="translate(475.3,601.6) scale(3.38)" color="rgb( 31, 120, 180)"/>
	<use xlink:href="#gpPt6" transform="translate(392.5,571.2) scale(3.38)" color="rgb( 31, 120, 180)"/>
	<use xlink:href="#gpPt6" transform="translate(472.8,540.7) scale(3.38)" color="rgb( 31, 120, 180)"/>
	<use xlink:href="#gpPt6" transform="translate(585.3,479.9) scale(3.38)" color="rgb( 31, 120, 180)"/>
	<use xlink:href="#gpPt6" transform="translate(468.1,449.5) scale(3.38)" color="rgb( 31, 120, 180)"/>
	<use xlink:href="#gpPt6" transform="translate(478.1,419.1) scale(3.38)" color="rgb( 31, 120, 180)"/>
	<use xlink:href="#gpPt6" transform="translate(539.4,388.7) scale(3.38)" color="rgb( 31, 120, 180)"/>
	<use xlink:href="#gpPt6" transform="translate(416.9,358.2) scale(3.38)" color="rgb( 31, 120, 180)"/>
	<use xlink:href="#gpPt6" transform="translate(488.6,327.8) scale(3.38)" color="rgb( 31, 120, 180)"/>
	<use xlink:href="#gpPt6" transform="translate(517.7,297.4) scale(3.38)" color="rgb( 31, 120, 180)"/>
	<use xlink:href="#gpPt6" transform="translate(402.1,267.0) scale(3.38)" color="rgb( 31, 120, 180)"/>
	<use xlink:href="#gpPt6" transform="translate(575.7,236.6) scale(3.38)" color="rgb( 31, 120, 180)"/>
	<use xlink:href="#gpPt6" transform="translate(461.3,206.2) scale(3.38)" color="rgb( 31, 120, 180)"/>
	<use xlink:href="#gpPt6" transform="translate(568.4,175.8) scale(3.38)" color="rgb( 31, 120, 180)"/>
	<use xlink:href="#gpPt6" transform="translate(439.1,145.3) scale(3.38)" color="rgb( 31, 120, 180)"/>
	<use xlink:href="#gpPt6" transform="translate(362.1,114.9) scale(3.38)" color="rgb( 31, 120, 180)"/>
	<use xlink:href="#gpPt6" transform="translate(524.6,84.5) scale(3.38)" color="rgb( 31, 120, 180)"/>
	<use xlink:href="#gpPt6" transform="translate(507.2,54.1) scale(3.38)" color="rgb( 31, 120, 180)"/>
	<use xlink:href="#gpPt6" transform="translate(1126.0,99.1) scale(3.38)" color="rgb( 31, 120, 180)"/>
</g>
	</g>
	<g id="gnuplot_plot_4"><title>Mild outliers</title>
<g fill="none" color="black" stroke="currentColor" stroke-width="1.00" stroke-linecap="butt" stroke-linejoin="miter">
	<g transform="translate(1155.4,121.0)" stroke="none" fill="black" font-family="Helvetica" font-size="12.00" text-anchor="start">
		<text><tspan font-family="Helvetica">Mild outliers</tspan></text>
	</g>
</g>
<g fill="none" color="black" stroke="currentColor" stroke-width="1.00" stroke-linecap="butt" stroke-linejoin="miter">
	<use xlink:href="#gpPt6" transform="translate(253.9,632.0) scale(3.38)" color="rgb(255, 127,   0)"/>
	<use xlink:href="#gpPt6" transform="translate(805.3,510.3) scale(3.38)" color="rgb(255, 127,   0)"/>
	<use xlink:href="#gpPt6" transform="translate(1126.0,117.1) scale(3.38)" color="rgb(255, 127,   0)"/>
</g>
	</g>
	<g id="gnuplot_plot_5"><title>gnuplot_plot_5</title>
<g fill="none" color="white" stroke="rgb(255, 127,   0)" stroke-width="2.00" stroke-linecap="butt" stroke-linejoin="miter">
</g>
<g fill="none" color="black" stroke="currentColor" stroke-width="2.00" stroke-linecap="butt" stroke-linejoin="miter">
	<path stroke="rgb(255, 127,   0)" d="M291.4,662.4 L291.4,54.1  "/></g>
	</g>
	<g id="gnuplot_plot_6"><title>gnuplot_plot_6</title>
<g fill="none" color="black" stroke="currentColor" stroke-width="2.00" stroke-linecap="butt" stroke-linejoin="miter">
	<path stroke="rgb(255, 127,   0)" d="M670.5,662.4 L670.5,54.1  "/></g>
	</g>
	<g id="gnuplot_plot_7"><title>gnuplot_plot_7</title>
<g fill="none" color="black" stroke="currentColor" stroke-width="2.00" stroke-linecap="butt" stroke-linejoin="miter">
	<path stroke="rgb(227,  26,  28)" d="M149.2,662.4 L149.2,54.1  "/></g>
	</g>
	<g id="gnuplot_plot_8"><title>gnuplot_plot_8</title>
<g fill="none" color="black" stroke="currentColor" stroke-width="2.00" stroke-linecap="butt" stroke-linejoin="miter">
	<path stroke="rgb(227,  26,  28)" d="M812.6,662.4 L812.6,54.1  "/></g>
	</g>
<g fill="none" color="black" stroke="currentColor" stroke-width="2.00" stroke-linecap="butt" stroke-linejoin="miter">
</g>
<g fill="none" color="black" stroke="black" stroke-width="1.00" stroke-linecap="butt" stroke-linejoin="miter">
</g>
<g fill="none" color="black" stroke="currentColor" stroke-width="1.00" stroke-linecap="butt" stroke-linejoin="miter">
	<path stroke="black" d="M63.6,54.1 L63.6,662.4 L995.6,662.4 L995.6,54.1 L63.6,54.1 Z  "/></g>
<g fill="none" color="black" stroke="currentColor" stroke-width="1.00" stroke-linecap="butt" stroke-linejoin="miter">
</g>
</g>
</svg>