<?xml version="1.0" encoding="UTF-8" standalone="no"?>
<svg viewBox="0 0 1280 720" xmlns="http://www.w3.org/2000/svg" xmlns:xlink="http://www.w3.org/1999/xlink">

<title>Gnuplot</title>
<desc>Produced by GNUPLOT 5.2 patchlevel 6 </desc>

<g id="gnuplot_canvas">

<rect x="0" y="0" width="1280" height="720" fill="none"/>
<defs>

	<circle id="gpDot" r="0.5" stroke-width="0.5" stroke="currentColor"/>
	<path id="gpPt0" stroke-width="0.222" stroke="currentColor" d="M-1,0 h2 M0,-1 v2"/>
	<path id="gpPt1" stroke-width="0.222" stroke="currentColor" d="M-1,-1 L1,1 M1,-1 L-1,1"/>
	<path id="gpPt2" stroke-width="0.222" stroke="currentColor" d="M-1,0 L1,0 M0,-1 L0,1 M-1,-1 L1,1 M-1,1 L1,-1"/>
	<rect id="gpPt3" stroke-width="0.222" stroke="currentColor" x="-1" y="-1" width="2" height="2"/>
	<rect id="gpPt4" stroke-width="0.222" stroke="currentColor" fill="currentColor" x="-1" y="-1" width="2" height="2"/>
	<circle id="gpPt5" stroke-width="0.222" stroke="currentColor" cx="0" cy="0" r="1"/>
	<use xlink:href="#gpPt5" id="gpPt6" fill="currentColor" stroke="none"/>
	<path id="gpPt7" stroke-width="0.222" stroke="currentColor" d="M0,-1.33 L-1.33,0.67 L1.33,0.67 z"/>
	<use xlink:href="#gpPt7" id="gpPt8" fill="currentColor" stroke="none"/>
	<use xlink:href="#gpPt7" id="gpPt9" stroke="currentColor" transform="rotate(180)"/>
	<use xlink:href="#gpPt9" id="gpPt10" fill="currentColor" stroke="none"/>
	<use xlink:href="#gpPt3" id="gpPt11" stroke="currentColor" transform="rotate(45)"/>
	<use xlink:href="#gpPt11" id="gpPt12" fill="currentColor" stroke="none"/>
	<path id="gpPt13" stroke-width="0.222" stroke="currentColor" d="M0,1.330 L1.265,0.411 L0.782,-1.067 L-0.782,-1.076 L-1.265,0.411 z"/>
	<use xlink:href="#gpPt13" id="gpPt14" fill="currentColor" stroke="none"/>
	<filter id="textbox" filterUnits="objectBoundingBox" x="0" y="0" height="1" width="1">
	  <feFlood flood-color="white" flood-opacity="1" result="bgnd"/>
	  <feComposite in="SourceGraphic" in2="bgnd" operator="atop"/>
	</filter>
	<filter id="greybox" filterUnits="objectBoundingBox" x="0" y="0" height="1" width="1">
	  <feFlood flood-color="lightgrey" flood-opacity="1" result="grey"/>
	  <feComposite in="SourceGraphic" in2="grey" operator="atop"/>
	</filter>
</defs>
<g fill="none" color="white" stroke="currentColor" stroke-width="1.00" stroke-linecap="butt" stroke-linejoin="miter">
</g>
<g fill="none" color="black" stroke="currentColor" stroke-width="1.00" stroke-linecap="butt" stroke-linejoin="miter">
	<path stroke="black" d="M63.6,662.4 L72.6,662.4  "/>	<g transform="translate(55.3,666.3)" stroke="none" fill="black" font-family="Helvetica" font-size="12.00" text-anchor="end">
		<text><tspan font-family="Helvetica"> 0</tspan></text>
	</g>
</g>
<g fill="none" color="black" stroke="currentColor" stroke-width="1.00" stroke-linecap="butt" stroke-linejoin="miter">
	<path stroke="black" d="M63.6,510.3 L72.6,510.3  "/>	<g transform="translate(55.3,514.2)" stroke="none" fill="black" font-family="Helvetica" font-size="12.00" text-anchor="end">
		<text><tspan font-family="Helvetica"> 5</tspan></text>
	</g>
</g>
<g fill="none" color="black" stroke="currentColor" stroke-width="1.00" stroke-linecap="butt" stroke-linejoin="miter">
	<path stroke="black" d="M63.6,358.2 L72.6,358.2  "/>	<g transform="translate(55.3,362.1)" stroke="none" fill="black" font-family="Helvetica" font-size="12.00" text-anchor="end">
		<text><tspan font-family="Helvetica"> 10</tspan></text>
	</g>
</g>
<g fill="none" color="black" stroke="currentColor" stroke-width="1.00" stroke-linecap="butt" stroke-linejoin="miter">
	<path stroke="black" d="M63.6,206.2 L72.6,206.2  "/>	<g transform="translate(55.3,210.1)" stroke="none" fill="black" font-family="Helvetica" font-size="12.00" text-anchor="end">
		<text><tspan font-family="Helvetica"> 15</tspan></text>
	</g>
</g>
<g fill="none" color="black" stroke="currentColor" stroke-width="1.00" stroke-linecap="butt" stroke-linejoin="miter">
	<path stroke="black" d="M63.6,54.1 L72.6,54.1  "/>	<g transform="translate(55.3,58.0)" stroke="none" fill="black" font-family="Helvetica" font-size="12.00" text-anchor="end">
		<text><tspan font-family="Helvetica"> 20</tspan></text>
	</g>
</g>
<g fill="none" color="black" stroke="currentColor" stroke-width="1.00" stroke-linecap="butt" stroke-linejoin="miter">
	<path stroke="black" d="M138.7,662.4 L138.7,653.4  "/>	<g transform="translate(138.7,684.3)" stroke="none" fill="black" font-family="Helvetica" font-size="12.00" text-anchor="middle">
		<text><tspan font-family="Helvetica"> 205</tspan></text>
	</g>
</g>
<g fill="none" color="black" stroke="currentColor" stroke-width="1.00" stroke-linecap="butt" stroke-linejoin="miter">
	<path stroke="black" d="M246.2,662.4 L246.2,653.4  "/>	<g transform="translate(246.2,684.3)" stroke="none" fill="black" font-family="Helvetica" font-size="12.00" text-anchor="middle">
		<text><tspan font-family="Helvetica"> 210</tspan></text>
	</g>
</g>
<g fill="none" color="black" stroke="currentColor" stroke-width="1.00" stroke-linecap="butt" stroke-linejoin="miter">
	<path stroke="black" d="M353.7,662.4 L353.7,653.4  "/>	<g transform="translate(353.7,684.3)" stroke="none" fill="black" font-family="Helvetica" font-size="12.00" text-anchor="middle">
		<text><tspan font-family="Helvetica"> 215</tspan></text>
	</g>
</g>
<g fill="none" color="black" stroke="currentColor" stroke-width="1.00" stroke-linecap="butt" stroke-linejoin="miter">
	<path stroke="black" d="M461.1,662.4 L461.1,653.4  "/>	<g transform="translate(461.1,684.3)" stroke="none" fill="black" font-family="Helvetica" font-size="12.00" text-anchor="middle">
		<text><tspan font-family="Helvetica"> 220</tspan></text>
	</g>
</g>
<g fill="none" color="black" stroke="currentColor" stroke-width="1.00" stroke-linecap="butt" stroke-linejoin="miter">
	<path stroke="black" d="M568.6,662.4 L568.6,653.4  "/>	<g transform="translate(568.6,684.3)" stroke="none" fill="black" font-family="Helvetica" font-size="12.00" text-anchor="middle">
		<text><tspan font-family="Helvetica"> 225</tspan></text>
	</g>
</g>
<g fill="none" color="black" stroke="currentColor" stroke-width="1.00" stroke-linecap="butt" stroke-linejoin="miter">
	<path stroke="black" d="M676.1,662.4 L676.1,653.4  "/>	<g transform="translate(676.1,684.3)" stroke="none" fill="black" font-family="Helvetica" font-size="12.00" text-anchor="middle">
		<text><tspan font-family="Helvetica"> 230</tspan></text>
	</g>
</g>
<g fill="none" color="black" stroke="currentColor" stroke-width="1.00" stroke-linecap="butt" stroke-linejoin="miter">
	<path stroke="black" d="M783.5,662.4 L783.5,653.4  "/>	<g transform="translate(783.5,684.3)" stroke="none" fill="black" font-family="Helvetica" font-size="12.00" text-anchor="middle">
		<text><tspan font-family="Helvetica"> 235</tspan></text>
	</g>
</g>
<g fill="none" color="black" stroke="currentColor" stroke-width="1.00" stroke-linecap="butt" stroke-linejoin="miter">
	<path stroke="black" d="M891.0,662.4 L891.0,653.4  "/>	<g transform="translate(891.0,684.3)" stroke="none" fill="black" font-family="Helvetica" font-size="12.00" text-anchor="middle">
		<text><tspan font-family="Helvetica"> 240</tspan></text>
	</g>
</g>
<g fill="none" color="black" stroke="currentColor" stroke-width="1.00" stroke-linecap="butt" stroke-linejoin="miter">
	<path stroke="black" d="M979.0,662.4 L970.0,662.4  "/>	<g transform="translate(987.3,666.3)" stroke="none" fill="black" font-family="Helvetica" font-size="12.00" text-anchor="start">
		<text><tspan font-family="Helvetica"> 0</tspan></text>
	</g>
</g>
<g fill="none" color="black" stroke="currentColor" stroke-width="1.00" stroke-linecap="butt" stroke-linejoin="miter">
	<path stroke="black" d="M979.0,601.6 L970.0,601.6  "/>	<g transform="translate(987.3,605.5)" stroke="none" fill="black" font-family="Helvetica" font-size="12.00" text-anchor="start">
		<text><tspan font-family="Helvetica"> 5x10</tspan><tspan font-family="Helvetica" font-size="9.6" dy="-6.00px">-9</tspan><tspan font-size="12.0" dy="6.00"/></text>
	</g>
</g>
<g fill="none" color="black" stroke="currentColor" stroke-width="1.00" stroke-linecap="butt" stroke-linejoin="miter">
	<path stroke="black" d="M979.0,540.7 L970.0,540.7  "/>	<g transform="translate(987.3,544.6)" stroke="none" fill="black" font-family="Helvetica" font-size="12.00" text-anchor="start">
		<text><tspan font-family="Helvetica"> 1x10</tspan><tspan font-family="Helvetica" font-size="9.6" dy="-6.00px">-8</tspan><tspan font-size="12.0" dy="6.00"/></text>
	</g>
</g>
<g fill="none" color="black" stroke="currentColor" stroke-width="1.00" stroke-linecap="butt" stroke-linejoin="miter">
	<path stroke="black" d="M979.0,479.9 L970.0,479.9  "/>	<g transform="translate(987.3,483.8)" stroke="none" fill="black" font-family="Helvetica" font-size="12.00" text-anchor="start">
		<text><tspan font-family="Helvetica"> 1.5x10</tspan><tspan font-family="Helvetica" font-size="9.6" dy="-6.00px">-8</tspan><tspan font-size="12.0" dy="6.00"/></text>
	</g>
</g>
<g fill="none" color="black" stroke="currentColor" stroke-width="1.00" stroke-linecap="butt" stroke-linejoin="miter">
	<path stroke="black" d="M979.0,419.1 L970.0,419.1  "/>	<g transform="translate(987.3,423.0)" stroke="none" fill="black" font-family="Helvetica" font-size="12.00" text-anchor="start">
		<text><tspan font-family="Helvetica"> 2x10</tspan><tspan font-family="Helvetica" font-size="9.6" dy="-6.00px">-8</tspan><tspan font-size="12.0" dy="6.00"/></text>
	</g>
</g>
<g fill="none" color="black" stroke="currentColor" stroke-width="1.00" stroke-linecap="butt" stroke-linejoin="miter">
	<path stroke="black" d="M979.0,358.2 L970.0,358.2  "/>	<g transform="translate(987.3,362.1)" stroke="none" fill="black" font-family="Helvetica" font-size="12.00" text-anchor="start">
		<text><tspan font-family="Helvetica"> 2.5x10</tspan><tspan font-family="Helvetica" font-size="9.6" dy="-6.00px">-8</tspan><tspan font-size="12.0" dy="6.00"/></text>
	</g>
</g>
<g fill="none" color="black" stroke="currentColor" stroke-width="1.00" stroke-linecap="butt" stroke-linejoin="miter">
	<path stroke="black" d="M979.0,297.4 L970.0,297.4  "/>	<g transform="translate(987.3,301.3)" stroke="none" fill="black" font-family="Helvetica" font-size="12.00" text-anchor="start">
		<text><tspan font-family="Helvetica"> 3x10</tspan><tspan font-family="Helvetica" font-size="9.6" dy="-6.00px">-8</tspan><tspan font-size="12.0" dy="6.00"/></text>
	</g>
</g>
<g fill="none" color="black" stroke="currentColor" stroke-width="1.00" stroke-linecap="butt" stroke-linejoin="miter">
	<path stroke="black" d="M979.0,236.6 L970.0,236.6  "/>	<g transform="translate(987.3,240.5)" stroke="none" fill="black" font-family="Helvetica" font-size="12.00" text-anchor="start">
		<text><tspan font-family="Helvetica"> 3.5x10</tspan><tspan font-family="Helvetica" font-size="9.6" dy="-6.00px">-8</tspan><tspan font-size="12.0" dy="6.00"/></text>
	</g>
</g>
<g fill="none" color="black" stroke="currentColor" stroke-width="1.00" stroke-linecap="butt" stroke-linejoin="miter">
	<path stroke="black" d="M979.0,175.8 L970.0,175.8  "/>	<g transform="translate(987.3,179.7)" stroke="none" fill="black" font-family="Helvetica" font-size="12.00" text-anchor="start">
		<text><tspan font-family="Helvetica"> 4x10</tspan><tspan font-family="Helvetica" font-size="9.6" dy="-6.00px">-8</tspan><tspan font-size="12.0" dy="6.00"/></text>
	</g>
</g>
<g fill="none" color="black" stroke="currentColor" stroke-width="1.00" stroke-linecap="butt" stroke-linejoin="miter">
	<path stroke="black" d="M979.0,114.9 L970.0,114.9  "/>	<g transform="translate(987.3,118.8)" stroke="none" fill="black" font-family="Helvetica" font-size="12.00" text-anchor="start">
		<text><tspan font-family="Helvetica"> 4.5x10</tspan><tspan font-family="Helvetica" font-size="9.6" dy="-6.00px">-8</tspan><tspan font-size="12.0" dy="6.00"/></text>
	</g>
</g>
<g fill="none" color="black" stroke="currentColor" stroke-width="1.00" stroke-linecap="butt" stroke-linejoin="miter">
	<path stroke="black" d="M979.0,54.1 L970.0,54.1  "/>	<g transform="translate(987.3,58.0)" stroke="none" fill="black" font-family="Helvetica" font-size="12.00" text-anchor="start">
		<text><tspan font-family="Helvetica"> 5x10</tspan><tspan font-family="Helvetica" font-size="9.6" dy="-6.00px">-8</tspan><tspan font-size="12.0" dy="6.00"/></text>
	</g>
</g>
<g fill="none" color="black" stroke="currentColor" stroke-width="1.00" stroke-linecap="butt" stroke-linejoin="miter">
</g>
<g fill="none" color="black" stroke="currentColor" stroke-width="1.00" stroke-linecap="butt" stroke-linejoin="miter">
	<path stroke="black" d="M63.6,54.1 L63.6,662.4 L979.0,662.4 L979.0,54.1 L63.6,54.1 Z  "/></g>
<g fill="none" color="black" stroke="currentColor" stroke-width="1.00" stroke-linecap="butt" stroke-linejoin="miter">
	<g transform="translate(16.3,358.3) rotate(270)" stroke="none" fill="black" font-family="Helvetica" font-size="12.00" text-anchor="middle">
		<text><tspan font-family="Helvetica">Iterations</tspan></text>
	</g>
</g>
<g fill="none" color="black" stroke="currentColor" stroke-width="1.00" stroke-linecap="butt" stroke-linejoin="miter">
	<g transform="translate(1082.5,358.3) rotate(270)" stroke="none" fill="black" font-family="Helvetica" font-size="12.00" text-anchor="middle">
		<text><tspan font-family="Helvetica">Density (a.u.)</tspan></text>
	</g>
</g>
<g fill="none" color="black" stroke="currentColor" stroke-width="1.00" stroke-linecap="butt" stroke-linejoin="miter">
	<g transform="translate(521.3,711.3)" stroke="none" fill="black" font-family="Helvetica" font-size="12.00" text-anchor="middle">
		<text><tspan font-family="Helvetica">Average time (ms)</tspan></text>
	</g>
</g>
<g fill="none" color="black" stroke="currentColor" stroke-width="1.00" stroke-linecap="butt" stroke-linejoin="miter">
	<g transform="translate(521.3,31.0)" stroke="none" fill="black" font-family="Helvetica" font-size="12.00" text-anchor="middle">
		<text><tspan font-family="Helvetica">ctest_ch1_learningjbook.ijs/unoptimized</tspan></text>
	</g>
</g>
	<g id="gnuplot_plot_1"><title>PDF</title>
<g fill="none" color="black" stroke="currentColor" stroke-width="1.00" stroke-linecap="butt" stroke-linejoin="miter">
	<g transform="translate(1155.4,67.0)" stroke="none" fill="black" font-family="Helvetica" font-size="12.00" text-anchor="start">
		<text><tspan font-family="Helvetica">PDF</tspan></text>
	</g>
</g>
<g fill="none" color="black" stroke="currentColor" stroke-width="1.00" stroke-linecap="butt" stroke-linejoin="miter">
	<g stroke="none" shape-rendering="crispEdges">
		<polygon fill="rgb( 31, 120, 180)" fill-opacity="0.250000" points="1104.9,67.6 1147.1,67.6 1147.1,58.6 1104.9,58.6 "/>
		<polygon fill="rgb( 31, 120, 180)" fill-opacity="0.250000" points="63.6,660.7 65.4,660.5 67.3,660.4 69.1,660.3 70.9,660.1 72.8,659.9 74.6,659.7 76.4,659.6 78.3,659.4 80.1,659.1 81.9,658.9 83.8,658.7 85.6,658.4 87.4,658.1 89.3,657.8 91.1,657.5 93.0,657.2 94.8,656.9 96.6,656.5 98.5,656.1 100.3,655.7 102.1,655.3 104.0,654.8 105.8,654.4 107.6,653.9 109.5,653.3 111.3,652.8 113.1,652.2 115.0,651.6 116.8,650.9 118.6,650.2 120.5,649.5 122.3,648.8 124.1,648.0 126.0,647.2 127.8,646.3 129.6,645.4 131.5,644.5 133.3,643.5 135.1,642.4 137.0,641.4 138.8,640.2 140.6,639.1 142.5,637.9 144.3,636.6 146.2,635.3 148.0,633.9 149.8,632.5 151.7,631.0 153.5,629.4 155.3,627.8 157.2,626.2 159.0,624.5 160.8,622.7 162.7,620.8 164.5,618.9 166.3,616.9 168.2,614.9 170.0,612.8 171.8,610.6 173.7,608.4 175.5,606.0 177.3,603.7 179.2,601.2 181.0,598.7 182.8,596.1 184.7,593.4 186.5,590.6 188.3,587.8 190.2,584.9 192.0,581.9 193.8,578.9 195.7,575.8 197.5,572.6 199.4,569.3 201.2,566.0 203.0,562.6 204.9,559.1 206.7,555.5 208.5,551.9 210.4,548.2 212.2,544.4 214.0,540.5 215.9,536.6 217.7,532.6 219.5,528.6 221.4,524.5 223.2,520.3 225.0,516.1 226.9,511.8 228.7,507.4 230.5,503.0 232.4,498.5 234.2,494.0 236.0,489.4 237.9,484.8 239.7,480.1 241.5,475.4 243.4,470.6 245.2,465.8 247.0,461.0 248.9,456.1 250.7,451.2 252.6,446.2 254.4,441.3 256.2,436.3 258.1,431.2 259.9,426.2 261.7,421.1 263.6,416.0 265.4,410.9 267.2,405.8 269.1,400.7 270.9,395.6 272.7,390.5 274.6,385.3 276.4,380.2 278.2,375.1 280.1,370.0 281.9,364.9 283.7,359.7 285.6,354.7 287.4,349.6 289.2,344.5 291.1,339.5 292.9,334.5 294.7,329.5 296.6,324.5 298.4,319.6 300.2,314.7 302.1,309.8 303.9,304.9 305.7,300.1 307.6,295.3 309.4,290.6 311.3,285.9 313.1,281.2 314.9,276.6 316.8,272.0 318.6,267.4 320.4,262.9 322.3,258.4 324.1,254.0 325.9,249.7 327.8,245.3 329.6,241.1 331.4,236.8 333.3,232.7 335.1,228.5 336.9,224.4 338.8,220.4 340.6,216.4 342.4,212.5 344.3,208.6 346.1,204.8 347.9,201.1 349.8,197.3 351.6,193.7 353.4,190.1 355.3,186.5 357.1,183.0 358.9,179.6 360.8,176.2 362.6,172.8 364.5,169.6 366.3,166.3 368.1,163.2 370.0,160.1 371.8,157.0 373.6,154.0 375.5,151.1 377.3,148.2 379.1,145.4 381.0,142.6 382.8,139.9 384.6,137.2 386.5,134.6 388.3,132.1 390.1,129.6 392.0,127.2 393.8,124.8 395.6,122.5 397.5,120.2 399.3,118.0 401.1,115.9 403.0,113.8 404.8,111.8 406.6,109.8 408.5,107.9 410.3,106.1 412.1,104.3 414.0,102.6 415.8,100.9 417.7,99.2 419.5,97.7 421.3,96.1 423.2,94.7 425.0,93.3 426.8,91.9 428.7,90.6 430.5,89.3 432.3,88.1 434.2,86.9 436.0,85.8 437.8,84.7 439.7,83.7 441.5,82.7 443.3,81.8 445.2,80.8 447.0,80.0 448.8,79.1 450.7,78.4 452.5,77.6 454.3,76.9 456.2,76.2 458.0,75.5 459.8,74.9 461.7,74.3 463.5,73.7 465.3,73.1 467.2,72.6 469.0,72.1 470.9,71.6 472.7,71.1 474.5,70.7 476.4,70.2 478.2,69.8 480.0,69.4 481.9,69.0 483.7,68.6 485.5,68.3 487.4,67.9 489.2,67.6 491.0,67.3 492.9,66.9 494.7,66.6 496.5,66.3 498.4,66.1 500.2,65.8 502.0,65.5 503.9,65.3 505.7,65.0 507.5,64.8 509.4,64.6 511.2,64.4 513.0,64.2 514.9,64.0 516.7,63.9 518.5,63.7 520.4,63.6 522.2,63.5 524.1,63.5 525.9,63.4 527.7,63.4 529.6,63.4 531.4,63.5 533.2,63.6 535.1,63.7 536.9,63.9 538.7,64.1 540.6,64.3 542.4,64.6 544.2,64.9 546.1,65.3 547.9,65.8 549.7,66.3 551.6,66.8 553.4,67.4 555.2,68.1 557.1,68.8 558.9,69.7 560.7,70.5 562.6,71.5 564.4,72.5 566.2,73.6 568.1,74.8 569.9,76.0 571.7,77.4 573.6,78.8 575.4,80.3 577.3,81.9 579.1,83.5 580.9,85.3 582.8,87.2 584.6,89.1 586.4,91.1 588.3,93.2 590.1,95.4 591.9,97.7 593.8,100.1 595.6,102.6 597.4,105.2 599.3,107.8 601.1,110.6 602.9,113.4 604.8,116.3 606.6,119.3 608.4,122.4 610.3,125.6 612.1,128.8 613.9,132.1 615.8,135.5 617.6,139.0 619.4,142.6 621.3,146.2 623.1,149.9 624.9,153.6 626.8,157.5 628.6,161.3 630.5,165.3 632.3,169.3 634.1,173.3 636.0,177.4 637.8,181.6 639.6,185.8 641.5,190.0 643.3,194.3 645.1,198.6 647.0,203.0 648.8,207.3 650.6,211.8 652.5,216.2 654.3,220.6 656.1,225.1 658.0,229.6 659.8,234.1 661.6,238.6 663.5,243.2 665.3,247.7 667.1,252.3 669.0,256.8 670.8,261.4 672.6,265.9 674.5,270.5 676.3,275.0 678.1,279.5 680.0,284.1 681.8,288.6 683.7,293.1 685.5,297.6 687.3,302.1 689.2,306.6 691.0,311.0 692.8,315.4 694.7,319.9 696.5,324.3 698.3,328.6 700.2,333.0 702.0,337.4 703.8,341.7 705.7,346.0 707.5,350.3 709.3,354.5 711.2,358.8 713.0,363.0 714.8,367.2 716.7,371.3 718.5,375.5 720.3,379.6 722.2,383.7 724.0,387.8 725.8,391.9 727.7,395.9 729.5,399.9 731.3,403.9 733.2,407.9 735.0,411.9 736.9,415.8 738.7,419.7 740.5,423.6 742.4,427.5 744.2,431.4 746.0,435.2 747.9,439.0 749.7,442.8 751.5,446.6 753.4,450.4 755.2,454.1 757.0,457.8 758.9,461.5 760.7,465.2 762.5,468.8 764.4,472.5 766.2,476.1 768.0,479.7 769.9,483.2 771.7,486.8 773.5,490.3 775.4,493.8 777.2,497.3 779.0,500.7 780.9,504.1 782.7,507.5 784.5,510.9 786.4,514.3 788.2,517.6 790.0,520.9 791.9,524.1 793.7,527.3 795.6,530.5 797.4,533.7 799.2,536.8 801.1,539.9 802.9,543.0 804.7,546.0 806.6,549.0 808.4,552.0 810.2,554.9 812.1,557.8 813.9,560.7 815.7,563.5 817.6,566.2 819.4,569.0 821.2,571.7 823.1,574.3 824.9,576.9 826.7,579.5 828.6,582.0 830.4,584.5 832.2,586.9 834.1,589.3 835.9,591.6 837.7,593.9 839.6,596.2 841.4,598.4 843.2,600.5 845.1,602.6 846.9,604.7 848.8,606.7 850.6,608.7 852.4,610.6 854.3,612.5 856.1,614.3 857.9,616.1 859.8,617.9 861.6,619.6 863.4,621.2 865.3,622.8 867.1,624.4 868.9,625.9 870.8,627.4 872.6,628.8 874.4,630.2 876.3,631.5 878.1,632.8 879.9,634.1 881.8,635.3 883.6,636.5 885.4,637.6 887.3,638.7 889.1,639.8 890.9,640.8 892.8,641.8 894.6,642.8 896.4,643.7 898.3,644.6 900.1,645.4 902.0,646.3 903.8,647.0 905.6,647.8 907.5,648.5 909.3,649.2 911.1,649.9 913.0,650.5 914.8,651.2 916.6,651.7 918.5,652.3 920.3,652.8 922.1,653.3 924.0,653.8 925.8,654.3 927.6,654.8 929.5,655.2 931.3,655.6 933.1,656.0 935.0,656.3 936.8,656.7 938.6,657.0 940.5,657.3 942.3,657.6 944.1,657.9 946.0,658.2 947.8,658.4 949.6,658.7 951.5,658.9 953.3,659.1 955.2,659.3 957.0,659.5 958.8,659.7 960.7,659.9 962.5,660.0 964.3,660.2 966.2,660.3 968.0,660.5 969.8,660.6 971.7,660.7 973.5,660.8 975.3,660.9 977.2,661.0 979.0,661.1 979.0,662.4 977.2,662.4 975.3,662.4 973.5,662.4 971.7,662.4 969.8,662.4 968.0,662.4 966.2,662.4 964.3,662.4 962.5,662.4 960.7,662.4 958.8,662.4 957.0,662.4 955.2,662.4 953.3,662.4 951.5,662.4 949.6,662.4 947.8,662.4 946.0,662.4 944.1,662.4 942.3,662.4 940.5,662.4 938.6,662.4 936.8,662.4 935.0,662.4 933.1,662.4 931.3,662.4 929.5,662.4 927.6,662.4 925.8,662.4 924.0,662.4 922.1,662.4 920.3,662.4 918.5,662.4 916.6,662.4 914.8,662.4 913.0,662.4 911.1,662.4 909.3,662.4 907.5,662.4 905.6,662.4 903.8,662.4 902.0,662.4 900.1,662.4 898.3,662.4 896.4,662.4 894.6,662.4 892.8,662.4 890.9,662.4 889.1,662.4 887.3,662.4 885.4,662.4 883.6,662.4 881.8,662.4 879.9,662.4 878.1,662.4 876.3,662.4 874.4,662.4 872.6,662.4 870.8,662.4 868.9,662.4 867.1,662.4 865.3,662.4 863.4,662.4 861.6,662.4 859.8,662.4 857.9,662.4 856.1,662.4 854.3,662.4 852.4,662.4 850.6,662.4 848.8,662.4 846.9,662.4 845.1,662.4 843.2,662.4 841.4,662.4 839.6,662.4 837.7,662.4 835.9,662.4 834.1,662.4 832.2,662.4 830.4,662.4 828.6,662.4 826.7,662.4 824.9,662.4 823.1,662.4 821.2,662.4 819.4,662.4 817.6,662.4 815.7,662.4 813.9,662.4 812.1,662.4 810.2,662.4 808.4,662.4 806.6,662.4 804.7,662.4 802.9,662.4 801.1,662.4 799.2,662.4 797.4,662.4 795.6,662.4 793.7,662.4 791.9,662.4 790.0,662.4 788.2,662.4 786.4,662.4 784.5,662.4 782.7,662.4 780.9,662.4 779.0,662.4 777.2,662.4 775.4,662.4 773.5,662.4 771.7,662.4 769.9,662.4 768.0,662.4 766.2,662.4 764.4,662.4 762.5,662.4 760.7,662.4 758.9,662.4 757.0,662.4 755.2,662.4 753.4,662.4 751.5,662.4 749.7,662.4 747.9,662.4 746.0,662.4 744.2,662.4 742.4,662.4 740.5,662.4 738.7,662.4 736.9,662.4 735.0,662.4 733.2,662.4 731.3,662.4 729.5,662.4 727.7,662.4 725.8,662.4 724.0,662.4 722.2,662.4 720.3,662.4 718.5,662.4 716.7,662.4 714.8,662.4 713.0,662.4 711.2,662.4 709.3,662.4 707.5,662.4 705.7,662.4 703.8,662.4 702.0,662.4 700.2,662.4 698.3,662.4 696.5,662.4 694.7,662.4 692.8,662.4 691.0,662.4 689.2,662.4 687.3,662.4 685.5,662.4 683.7,662.4 681.8,662.4 680.0,662.4 678.1,662.4 676.3,662.4 674.5,662.4 672.6,662.4 670.8,662.4 669.0,662.4 667.1,662.4 665.3,662.4 663.5,662.4 661.6,662.4 659.8,662.4 658.0,662.4 656.1,662.4 654.3,662.4 652.5,662.4 650.6,662.4 648.8,662.4 647.0,662.4 645.1,662.4 643.3,662.4 641.5,662.4 639.6,662.4 637.8,662.4 636.0,662.4 634.1,662.4 632.3,662.4 630.5,662.4 628.6,662.4 626.8,662.4 624.9,662.4 623.1,662.4 621.3,662.4 619.4,662.4 617.6,662.4 615.8,662.4 613.9,662.4 612.1,662.4 610.3,662.4 608.4,662.4 606.6,662.4 604.8,662.4 602.9,662.4 601.1,662.4 599.3,662.4 597.4,662.4 595.6,662.4 593.8,662.4 591.9,662.4 590.1,662.4 588.3,662.4 586.4,662.4 584.6,662.4 582.8,662.4 580.9,662.4 579.1,662.4 577.3,662.4 575.4,662.4 573.6,662.4 571.7,662.4 569.9,662.4 568.1,662.4 566.2,662.4 564.4,662.4 562.6,662.4 560.7,662.4 558.9,662.4 557.1,662.4 555.2,662.4 553.4,662.4 551.6,662.4 549.7,662.4 547.9,662.4 546.1,662.4 544.2,662.4 542.4,662.4 540.6,662.4 538.7,662.4 536.9,662.4 535.1,662.4 533.2,662.4 531.4,662.4 529.6,662.4 527.7,662.4 525.9,662.4 524.1,662.4 522.2,662.4 520.4,662.4 518.5,662.4 516.7,662.4 514.9,662.4 513.0,662.4 511.2,662.4 509.4,662.4 507.5,662.4 505.7,662.4 503.9,662.4 502.0,662.4 500.2,662.4 498.4,662.4 496.5,662.4 494.7,662.4 492.9,662.4 491.0,662.4 489.2,662.4 487.4,662.4 485.5,662.4 483.7,662.4 481.9,662.4 480.0,662.4 478.2,662.4 476.4,662.4 474.5,662.4 472.7,662.4 470.9,662.4 469.0,662.4 467.2,662.4 465.3,662.4 463.5,662.4 461.7,662.4 459.8,662.4 458.0,662.4 456.2,662.4 454.3,662.4 452.5,662.4 450.7,662.4 448.8,662.4 447.0,662.4 445.2,662.4 443.3,662.4 441.5,662.4 439.7,662.4 437.8,662.4 436.0,662.4 434.2,662.4 432.3,662.4 430.5,662.4 428.7,662.4 426.8,662.4 425.0,662.4 423.2,662.4 421.3,662.4 419.5,662.4 417.7,662.4 415.8,662.4 414.0,662.4 412.1,662.4 410.3,662.4 408.5,662.4 406.6,662.4 404.8,662.4 403.0,662.4 401.1,662.4 399.3,662.4 397.5,662.4 395.6,662.4 393.8,662.4 392.0,662.4 390.1,662.4 388.3,662.4 386.5,662.4 384.6,662.4 382.8,662.4 381.0,662.4 379.1,662.4 377.3,662.4 375.5,662.4 373.6,662.4 371.8,662.4 370.0,662.4 368.1,662.4 366.3,662.4 364.5,662.4 362.6,662.4 360.8,662.4 358.9,662.4 357.1,662.4 355.3,662.4 353.4,662.4 351.6,662.4 349.8,662.4 347.9,662.4 346.1,662.4 344.3,662.4 342.4,662.4 340.6,662.4 338.8,662.4 336.9,662.4 335.1,662.4 333.3,662.4 331.4,662.4 329.6,662.4 327.8,662.4 325.9,662.4 324.1,662.4 322.3,662.4 320.4,662.4 318.6,662.4 316.8,662.4 314.9,662.4 313.1,662.4 311.3,662.4 309.4,662.4 307.6,662.4 305.7,662.4 303.9,662.4 302.1,662.4 300.2,662.4 298.4,662.4 296.6,662.4 294.7,662.4 292.9,662.4 291.1,662.4 289.2,662.4 287.4,662.4 285.6,662.4 283.7,662.4 281.9,662.4 280.1,662.4 278.2,662.4 276.4,662.4 274.6,662.4 272.7,662.4 270.9,662.4 269.1,662.4 267.2,662.4 265.4,662.4 263.6,662.4 261.7,662.4 259.9,662.4 258.1,662.4 256.2,662.4 254.4,662.4 252.6,662.4 250.7,662.4 248.9,662.4 247.0,662.4 245.2,662.4 243.4,662.4 241.5,662.4 239.7,662.4 237.9,662.4 236.0,662.4 234.2,662.4 232.4,662.4 230.5,662.4 228.7,662.4 226.9,662.4 225.0,662.4 223.2,662.4 221.4,662.4 219.5,662.4 217.7,662.4 215.9,662.4 214.0,662.4 212.2,662.4 210.4,662.4 208.5,662.4 206.7,662.4 204.9,662.4 203.0,662.4 201.2,662.4 199.4,662.4 197.5,662.4 195.7,662.4 193.8,662.4 192.0,662.4 190.2,662.4 188.3,662.4 186.5,662.4 184.7,662.4 182.8,662.4 181.0,662.4 179.2,662.4 177.3,662.4 175.5,662.4 173.7,662.4 171.8,662.4 170.0,662.4 168.2,662.4 166.3,662.4 164.5,662.4 162.7,662.4 160.8,662.4 159.0,662.4 157.2,662.4 155.3,662.4 153.5,662.4 151.7,662.4 149.8,662.4 148.0,662.4 146.2,662.4 144.3,662.4 142.5,662.4 140.6,662.4 138.8,662.4 137.0,662.4 135.1,662.4 133.3,662.4 131.5,662.4 129.6,662.4 127.8,662.4 126.0,662.4 124.1,662.4 122.3,662.4 120.5,662.4 118.6,662.4 116.8,662.4 115.0,662.4 113.1,662.4 111.3,662.4 109.5,662.4 107.6,662.4 105.8,662.4 104.0,662.4 102.1,662.4 100.3,662.4 98.5,662.4 96.6,662.4 94.8,662.4 93.0,662.4 91.1,662.4 89.3,662.4 87.4,662.4 85.6,662.4 83.8,662.4 81.9,662.4 80.1,662.4 78.3,662.4 76.4,662.4 74.6,662.4 72.8,662.4 70.9,662.4 69.1,662.4 67.3,662.4 65.4,662.4 63.6,662.4 "/>
	</g>
</g>
	</g>
	<g id="gnuplot_plot_2"><title>Mean</title>
<g fill="none" color="white" stroke="rgb( 31, 120, 180)" stroke-width="2.00" stroke-linecap="butt" stroke-linejoin="miter">
</g>
<g fill="none" color="black" stroke="currentColor" stroke-width="2.00" stroke-linecap="butt" stroke-linejoin="miter">
	<g transform="translate(1155.4,85.0)" stroke="none" fill="black" font-family="Helvetica" font-size="12.00" text-anchor="start">
		<text><tspan font-family="Helvetica">Mean</tspan></text>
	</g>
</g>
<g fill="none" color="black" stroke="currentColor" stroke-width="2.00" stroke-linecap="butt" stroke-linejoin="miter">
	<path stroke="rgb( 31, 120, 180)" d="M1104.9,81.1 L1147.1,81.1 M504.1,662.4 L504.1,54.1  "/></g>
	</g>
	<g id="gnuplot_plot_3"><title>"Clean" sample</title>
<g fill="none" color="white" stroke="rgb( 31, 120, 180)" stroke-width="1.00" stroke-linecap="butt" stroke-linejoin="miter">
</g>
<g fill="none" color="black" stroke="currentColor" stroke-width="1.00" stroke-linecap="butt" stroke-linejoin="miter">
	<g transform="translate(1155.4,103.0)" stroke="none" fill="black" font-family="Helvetica" font-size="12.00" text-anchor="start">
		<text><tspan font-family="Helvetica">"Clean" sample</tspan></text>
	</g>
</g>
<g fill="none" color="black" stroke="currentColor" stroke-width="1.00" stroke-linecap="butt" stroke-linejoin="miter">
	<use xlink:href="#gpPt6" transform="translate(664.5,632.0) scale(3.38)" color="rgb( 31, 120, 180)"/>
	<use xlink:href="#gpPt6" transform="translate(742.9,601.6) scale(3.38)" color="rgb( 31, 120, 180)"/>
	<use xlink:href="#gpPt6" transform="translate(335.3,571.2) scale(3.38)" color="rgb( 31, 120, 180)"/>
	<use xlink:href="#gpPt6" transform="translate(305.4,540.7) scale(3.38)" color="rgb( 31, 120, 180)"/>
	<use xlink:href="#gpPt6" transform="translate(442.6,510.3) scale(3.38)" color="rgb( 31, 120, 180)"/>
	<use xlink:href="#gpPt6" transform="translate(329.2,479.9) scale(3.38)" color="rgb( 31, 120, 180)"/>
	<use xlink:href="#gpPt6" transform="translate(299.7,449.5) scale(3.38)" color="rgb( 31, 120, 180)"/>
	<use xlink:href="#gpPt6" transform="translate(466.7,419.1) scale(3.38)" color="rgb( 31, 120, 180)"/>
	<use xlink:href="#gpPt6" transform="translate(444.1,388.7) scale(3.38)" color="rgb( 31, 120, 180)"/>
	<use xlink:href="#gpPt6" transform="translate(422.0,358.2) scale(3.38)" color="rgb( 31, 120, 180)"/>
	<use xlink:href="#gpPt6" transform="translate(533.1,327.8) scale(3.38)" color="rgb( 31, 120, 180)"/>
	<use xlink:href="#gpPt6" transform="translate(439.9,297.4) scale(3.38)" color="rgb( 31, 120, 180)"/>
	<use xlink:href="#gpPt6" transform="translate(409.0,267.0) scale(3.38)" color="rgb( 31, 120, 180)"/>
	<use xlink:href="#gpPt6" transform="translate(575.3,236.6) scale(3.38)" color="rgb( 31, 120, 180)"/>
	<use xlink:href="#gpPt6" transform="translate(733.2,206.2) scale(3.38)" color="rgb( 31, 120, 180)"/>
	<use xlink:href="#gpPt6" transform="translate(614.6,175.8) scale(3.38)" color="rgb( 31, 120, 180)"/>
	<use xlink:href="#gpPt6" transform="translate(597.2,145.3) scale(3.38)" color="rgb( 31, 120, 180)"/>
	<use xlink:href="#gpPt6" transform="translate(565.8,114.9) scale(3.38)" color="rgb( 31, 120, 180)"/>
	<use xlink:href="#gpPt6" transform="translate(561.3,84.5) scale(3.38)" color="rgb( 31, 120, 180)"/>
	<use xlink:href="#gpPt6" transform="translate(600.4,54.1) scale(3.38)" color="rgb( 31, 120, 180)"/>
	<use xlink:href="#gpPt6" transform="translate(1126.0,99.1) scale(3.38)" color="rgb( 31, 120, 180)"/>
</g>
	</g>
	<g id="gnuplot_plot_4"><title>gnuplot_plot_4</title>
<g fill="none" color="white" stroke="rgb( 31, 120, 180)" stroke-width="2.00" stroke-linecap="butt" stroke-linejoin="miter">
</g>
<g fill="none" color="black" stroke="currentColor" stroke-width="2.00" stroke-linecap="butt" stroke-linejoin="miter">
	<path stroke="rgb(255, 127,   0)" d="M149.8,662.4 L149.8,54.1  "/></g>
	</g>
	<g id="gnuplot_plot_5"><title>gnuplot_plot_5</title>
<g fill="none" color="black" stroke="currentColor" stroke-width="2.00" stroke-linecap="butt" stroke-linejoin="miter">
	<path stroke="rgb(255, 127,   0)" d="M866.9,662.4 L866.9,54.1  "/></g>
	</g>
	<g id="gnuplot_plot_6"><title>gnuplot_plot_6</title>
<g fill="none" color="black" stroke="currentColor" stroke-width="2.00" stroke-linecap="butt" stroke-linejoin="miter">
</g>
	</g>
	<g id="gnuplot_plot_7"><title>gnuplot_plot_7</title>
<g fill="none" color="black" stroke="currentColor" stroke-width="2.00" stroke-linecap="butt" stroke-linejoin="miter">
</g>
	</g>
<g fill="none" color="black" stroke="currentColor" stroke-width="2.00" stroke-linecap="butt" stroke-linejoin="miter">
</g>
<g fill="none" color="black" stroke="black" stroke-width="1.00" stroke-linecap="butt" stroke-linejoin="miter">
</g>
<g fill="none" color="black" stroke="currentColor" stroke-width="1.00" stroke-linecap="butt" stroke-linejoin="miter">
	<path stroke="black" d="M63.6,54.1 L63.6,662.4 L979.0,662.4 L979.0,54.1 L63.6,54.1 Z  "/></g>
<g fill="none" color="black" stroke="currentColor" stroke-width="1.00" stroke-linecap="butt" stroke-linejoin="miter">
</g>
</g>
</svg>